<svg xmlns="http://www.w3.org/2000/svg" width="88" height="23" viewBox="0 0 88 23" fill="none"><path fill-rule="evenodd" clip-rule="evenodd" d="M83.8379 2.20346C84.582 2.20346 84.922 2.39641 84.922 2.90163C84.922 3.41608 84.582 3.56309 83.8379 3.56309H83.1308V2.20347L83.8379 2.20346ZM83.9476 1.81755H82.5605V5.60211H83.1301V3.93944H84.0117L84.8109 5.60211H85.4632L84.618 3.85685C85.1691 3.7835 85.5091 3.38833 85.5091 2.86494C85.5091 2.13903 84.9946 1.81755 83.9476 1.81755M86.7773 3.77405C86.7773 4.5733 86.4925 5.2804 85.9413 5.81335C85.3628 6.38268 84.6187 6.68599 83.8472 6.68599C83.0756 6.68599 82.3501 6.38268 81.7896 5.82229C81.2293 5.26222 80.9259 4.53632 80.9259 3.76481C80.9259 2.99328 81.2385 2.25842 81.8078 1.67956C82.3501 1.13768 83.0571 0.834677 83.8472 0.834677C84.6464 0.834677 85.3813 1.13768 85.9413 1.69806C86.4835 2.23994 86.7773 2.97479 86.7773 3.77407M83.8454 0.476562C82.9543 0.476562 82.1553 0.807012 81.549 1.42255C80.9153 2.06554 80.566 2.90149 80.566 3.76487C80.566 4.63748 80.906 5.45494 81.5305 6.07976C82.1554 6.7135 82.9728 7.05347 83.8454 7.05347C84.7088 7.05347 85.5447 6.70423 86.1877 6.0705C86.8033 5.46419 87.1337 4.66523 87.1337 3.76487C87.1337 2.883 86.8033 2.05629 86.1877 1.44104C85.5633 0.807002 84.7455 0.476562 83.8454 0.476562M65.2872 22.1641L67.8283 15.4981H77.2746L79.8155 22.1641H82.0576L73.8365 0.910006H71.3256L63.0752 22.1641H65.2872ZM76.5583 13.5838H68.5468L72.5228 2.91222L76.5583 13.5838ZM48.4283 22.1641V12.4789H58.5321V22.1641H60.6248V0.910006H58.5321V10.446H48.4283V0.910006H46.3354V22.1641H48.4283ZM31.1799 3.00234H34.259C36.2619 3.00234 37.7562 3.00234 38.9223 4.0485C39.9389 4.97537 40.4469 6.20093 40.4469 7.69589C40.4469 10.1171 38.6532 11.9105 35.9031 11.9105H33.9002L40.2073 22.1641H42.689L37.5473 13.8539C40.5363 13.6443 42.689 10.8942 42.689 7.66601C42.689 5.45346 41.6428 3.33124 39.9389 2.13525C38.4439 1.08909 36.83 0.910006 34.827 0.910006H29.1172V22.1641H31.1799V3.00234Z" fill="black"></path><path fill-rule="evenodd" clip-rule="evenodd" d="M11.1973 3.9948C9.90918 5.53475 4.60591 12.0719 4.60591 15.3066C4.60591 18.941 7.56287 21.898 11.1973 21.898C14.8318 21.898 17.7893 18.941 17.7893 15.3066C17.7893 12.0719 12.4851 5.53475 11.1973 3.9948M11.1975 22.6362C7.15647 22.6362 3.86816 19.348 3.86816 15.3069C3.86816 11.3707 10.6306 3.51519 10.9188 3.18262H11.4765C11.7644 3.51518 18.5274 11.3707 18.5274 15.3069C18.5274 19.348 15.2391 22.6362 11.1975 22.6362" fill="black"></path><rect x="0.439453" y="0.883789" width="21.5152" height="0.687684" fill="black"></rect></svg>